<svg width="112" height="112" viewBox="0 0 112 112" fill="none" xmlns="http://www.w3.org/2000/svg">
<path d="M55.3563 12.3736L55.3528 12.3736C51.3838 12.4015 47.5784 12.9187 43.9384 13.9267C40.302 14.9337 36.8741 16.3747 33.6558 18.2497C30.4369 20.1251 27.5386 22.3792 24.9624 25.0114C22.3906 27.6391 20.1541 30.5326 18.2533 33.6912C16.3484 36.8568 14.8924 40.2735 13.885 43.9394C12.877 47.6073 12.3736 51.4135 12.3736 55.3563L12.3736 55.3598C12.4015 59.3289 12.9187 63.1342 13.9267 66.7743C14.9337 70.4106 16.3747 73.8386 18.2497 77.0569C20.1251 80.2758 22.3792 83.174 25.0114 85.7503C27.6392 88.3221 30.5326 90.5586 33.6912 92.4593C36.8568 94.3643 40.2735 95.8203 43.9394 96.8277C47.6073 97.8357 51.4135 98.3391 55.3563 98.3391L55.3599 98.3391C59.3289 98.3111 63.1342 97.794 66.7743 96.7859C70.4106 95.7789 73.8386 94.3379 77.0569 92.4629C80.2758 90.5875 83.174 88.3335 85.7503 85.7012C88.3221 83.0735 90.5586 80.18 92.4593 77.0215C94.3643 73.8558 95.8203 70.4392 96.8277 66.7733C97.8357 63.1053 98.3391 59.2992 98.3391 55.3563L98.3391 55.3528C98.3111 51.3838 97.794 47.5784 96.7859 43.9384C95.7789 40.302 94.3379 36.8741 92.4629 33.6558C90.5875 30.4369 88.3335 27.5386 85.7012 24.9624C83.0735 22.3906 80.18 20.1541 77.0215 18.2533C73.8558 16.3483 70.4392 14.8924 66.7733 13.885C63.1053 12.877 59.2992 12.3736 55.3563 12.3736ZM47.7444 63.3435L74.7308 36.3571L79.6659 41.2922L47.3908 73.5673L31.0467 57.2232L35.9819 52.2881L47.0373 63.3435L47.3908 63.6971L47.7444 63.3435Z" fill="white" stroke="#F5CD15"/>
</svg>
