<svg width="112" height="113" viewBox="0 0 112 113" fill="none" xmlns="http://www.w3.org/2000/svg">
<path d="M32.9147 33.1667H28.3049C25.8597 33.1667 23.5147 34.15 21.7857 35.9003C20.0567 37.6507 19.0854 40.0247 19.0854 42.5V84.5001C19.0854 86.9754 20.0567 89.3494 21.7857 91.0998C23.5147 92.8501 25.8597 93.8334 28.3049 93.8334H69.7928C72.2379 93.8334 74.583 92.8501 76.3119 91.0998C78.0409 89.3494 79.0123 86.9754 79.0123 84.5001V79.8334" stroke="white" stroke-width="4" stroke-linecap="round" stroke-linejoin="round"/>
<path d="M94.6161 31.23C96.4317 29.392 97.4516 26.8992 97.4516 24.3C97.4516 21.7007 96.4317 19.2079 94.6161 17.37C92.8006 15.532 90.3382 14.4995 87.7707 14.4995C85.2031 14.4995 82.7407 15.532 80.9252 17.37L42.1341 56.4999V70.4999H55.9634L94.6161 31.23ZM74.4024 23.8333L88.2316 37.8333L74.4024 23.8333Z" fill="#F5CD15"/>
<path d="M74.4024 23.8333L88.2316 37.8333M94.6161 31.23C96.4317 29.392 97.4516 26.8992 97.4516 24.3C97.4516 21.7007 96.4317 19.2079 94.6161 17.37C92.8006 15.532 90.3382 14.4995 87.7707 14.4995C85.2031 14.4995 82.7407 15.532 80.9252 17.37L42.1341 56.4999V70.4999H55.9634L94.6161 31.23Z" stroke="white" stroke-width="4" stroke-linecap="round" stroke-linejoin="round"/>
</svg>
